<?xml version="1.0" encoding="UTF-8" standalone="no"?><!DOCTYPE svg PUBLIC "-//W3C//DTD SVG 1.1//EN" "http://www.w3.org/Graphics/SVG/1.1/DTD/svg11.dtd"><svg width="100%" height="100%" viewBox="0 0 599 111" version="1.1" xmlns="http://www.w3.org/2000/svg" xmlns:xlink="http://www.w3.org/1999/xlink" xml:space="preserve" style="fill-rule:evenodd;clip-rule:evenodd;stroke-linejoin:round;stroke-miterlimit:1.41421;"><path d="M117.905,27.673c0,3.236 -1.214,5.726 -3.641,7.471c-2.428,1.744 -5.925,2.616 -10.492,2.616l-45.258,0l0,-4.477l11.921,0l0,-28.051l-11.921,0l0,-4.477l44.395,0c3.92,0 6.949,0.881 9.089,2.643c2.14,1.762 3.21,4.082 3.21,6.959c0,1.906 -0.504,3.56 -1.511,4.963c-1.007,1.402 -2.355,2.499 -4.045,3.29c5.502,1.295 8.253,4.316 8.253,9.063Zm-41.913,-22.441l0,11.814l25.622,0c2.518,0 4.486,-0.495 5.907,-1.484c1.42,-0.989 2.131,-2.508 2.131,-4.558c0,-1.978 -0.666,-3.434 -1.996,-4.369c-1.331,-0.935 -3.003,-1.403 -5.017,-1.403l-26.647,0Zm36.303,22.009c0,-2.086 -0.8,-3.623 -2.401,-4.612c-1.6,-0.989 -3.821,-1.466 -6.662,-1.43l-27.24,-0.054l0,12.138l27.24,0c6.042,0 9.063,-2.014 9.063,-6.042Z" style="fill:#24135f;fill-rule:nonzero;"/><path d="M139.077,36.87c-3.578,-1.097 -6.419,-2.661 -8.523,-4.693c-2.103,-2.032 -3.155,-4.433 -3.155,-7.202c0,-2.805 1.061,-5.214 3.182,-7.228c2.122,-2.014 4.981,-3.533 8.577,-4.558c3.596,-1.025 7.588,-1.537 11.975,-1.537c4.28,0 8.2,0.521 11.76,1.564c3.56,1.043 6.392,2.571 8.496,4.585c2.104,2.014 3.155,4.405 3.155,7.174c0,2.769 -1.042,5.179 -3.128,7.229c-2.086,2.049 -4.927,3.614 -8.523,4.693c-3.596,1.079 -7.588,1.6 -11.975,1.564c-4.316,0.036 -8.263,-0.494 -11.841,-1.591Zm21.065,-3.749c2.733,-0.72 4.891,-1.78 6.473,-3.183c1.582,-1.402 2.373,-3.057 2.373,-4.963c0,-2.913 -1.69,-5.151 -5.07,-6.715c-3.381,-1.565 -7.714,-2.347 -13,-2.347c-5.287,0.036 -9.611,0.827 -12.974,2.374c-3.362,1.546 -5.043,3.775 -5.043,6.688c0,1.906 0.791,3.561 2.373,4.963c1.583,1.403 3.74,2.463 6.473,3.183c2.734,0.719 5.79,1.079 9.171,1.079c3.416,0 6.491,-0.36 9.224,-1.079Z" style="fill:#24135f;fill-rule:nonzero;"/><path d="M194.692,36.87c-3.578,-1.097 -6.419,-2.661 -8.523,-4.693c-2.104,-2.032 -3.156,-4.433 -3.156,-7.202c0,-2.805 1.061,-5.214 3.183,-7.228c2.122,-2.014 4.981,-3.533 8.577,-4.558c3.596,-1.025 7.588,-1.537 11.975,-1.537c4.28,0 8.199,0.521 11.76,1.564c3.56,1.043 6.392,2.571 8.496,4.585c2.103,2.014 3.155,4.405 3.155,7.174c0,2.769 -1.043,5.179 -3.128,7.229c-2.086,2.049 -4.927,3.614 -8.523,4.693c-3.597,1.079 -7.588,1.6 -11.976,1.564c-4.315,0.036 -8.262,-0.494 -11.84,-1.591Zm21.065,-3.749c2.733,-0.72 4.89,-1.78 6.473,-3.183c1.582,-1.402 2.373,-3.057 2.373,-4.963c0,-2.913 -1.69,-5.151 -5.07,-6.715c-3.381,-1.565 -7.714,-2.347 -13.001,-2.347c-5.286,0.036 -9.61,0.827 -12.973,2.374c-3.362,1.546 -5.043,3.775 -5.043,6.688c0,1.906 0.791,3.561 2.373,4.963c1.582,1.403 3.74,2.463 6.473,3.183c2.733,0.719 5.79,1.079 9.17,1.079c3.417,0 6.491,-0.36 9.225,-1.079Z" style="fill:#24135f;fill-rule:nonzero;"/><path d="M295.106,31.071c-0.683,2.481 -2.005,4.459 -3.965,5.934c-1.96,1.474 -4.396,2.211 -7.309,2.211c-2.913,0 -5.655,-0.917 -8.226,-2.751c-2.571,-1.834 -5.044,-4.477 -7.417,-7.929c-5.287,-0.144 -10.249,-0.648 -14.888,-1.511l0,6.473l10.303,0l0,4.262l-26.756,0l0,-4.262l11.274,0l0,-28.481l-11.274,0l0,-4.262l16.453,0l0,17.801c8.307,-4.639 15.841,-6.958 22.601,-6.958c4.064,0 7.238,0.701 9.521,2.103c2.284,1.403 3.426,3.345 3.426,5.826c0,2.733 -1.385,4.855 -4.154,6.365c-2.769,1.511 -6.689,2.374 -11.759,2.59c1.942,2.121 3.704,3.659 5.286,4.612c1.582,0.953 3.416,1.429 5.502,1.429c1.87,0 3.488,-0.467 4.855,-1.402c1.366,-0.935 2.301,-2.266 2.805,-3.992l3.722,1.942Zm-41.805,-7.39c5.25,0.791 10.932,1.186 17.045,1.186c3.956,0 7.094,-0.422 9.413,-1.267c2.32,-0.845 3.48,-2.041 3.48,-3.587c0,-1.331 -0.675,-2.338 -2.023,-3.021c-1.349,-0.683 -3.336,-1.025 -5.961,-1.025c-5.862,0 -13.18,1.978 -21.954,5.934l0,1.78Z" style="fill:#24135f;fill-rule:nonzero;"/><path d="M379.472,27.942c-2.841,3.021 -6.518,5.529 -11.031,7.525c-4.513,1.996 -9.953,2.994 -16.318,2.994c-4.962,0 -9.467,-0.755 -13.512,-2.266c-4.046,-1.51 -7.247,-3.713 -9.602,-6.608c-2.356,-2.894 -3.533,-6.32 -3.533,-10.276c0,-3.991 1.186,-7.444 3.56,-10.357c2.373,-2.912 5.565,-5.133 9.575,-6.661c4.009,-1.529 8.442,-2.293 13.296,-2.293c4.532,0 8.685,0.737 12.461,2.212c3.776,1.474 7.049,3.56 9.818,6.257l-0.054,-7.714l5.016,0l0,13.378l-3.56,0.647c-5.718,-6.868 -13.611,-10.303 -23.681,-10.303c-3.955,0 -7.498,0.621 -10.626,1.861c-3.129,1.241 -5.574,2.985 -7.336,5.233c-1.763,2.247 -2.644,4.81 -2.644,7.686c0,2.949 0.926,5.53 2.778,7.741c1.852,2.212 4.361,3.911 7.525,5.098c3.165,1.187 6.671,1.78 10.519,1.78c5.646,0 10.501,-0.917 14.565,-2.751c4.063,-1.834 7.408,-4.172 10.033,-7.013l2.751,3.83Z" style="fill:#24135f;fill-rule:nonzero;"/><path d="M413.726,33.498l0,4.262l-27.511,0l0,-4.262l11.274,0l0,-28.481l-11.274,0l0,-4.262l16.56,0l0,32.743l10.951,0Z" style="fill:#24135f;fill-rule:nonzero;"/><path d="M476.191,36.519c-0.899,0.611 -1.843,1.079 -2.832,1.403c-0.989,0.323 -2.149,0.485 -3.479,0.485c-2.23,0 -4.055,-0.71 -5.475,-2.131c-1.421,-1.42 -2.149,-3.407 -2.185,-5.96c-3.452,2.517 -6.752,4.504 -9.899,5.96c-3.146,1.457 -6.446,2.185 -9.898,2.185c-5.179,0 -9.008,-1.376 -11.49,-4.127c-2.481,-2.751 -3.722,-6.446 -3.722,-11.085l0,-6.635l-10.573,0l0,-4.261l15.86,0l0,11.112c0,6.653 3.668,9.997 11.004,10.033c5.466,0 11.705,-2.499 18.718,-7.498l0,-9.386l-9.656,0l0,-4.261l14.942,0l0,16.938c0,1.582 0.342,2.76 1.025,3.533c0.683,0.773 1.529,1.16 2.535,1.16c1.295,0 2.554,-0.414 3.776,-1.241l1.349,3.776Z" style="fill:#24135f;fill-rule:nonzero;"/><path d="M526.681,13.108c2.625,0.971 4.666,2.391 6.123,4.261c1.456,1.87 2.184,4.118 2.184,6.743c0,2.913 -0.944,5.457 -2.832,7.633c-1.888,2.176 -4.423,3.848 -7.606,5.017c-3.182,1.169 -6.679,1.753 -10.491,1.753c-7.121,0 -14.169,-1.564 -21.146,-4.693l-1.726,3.938l-3.129,0l0,-32.743l-11.328,0l0,-4.262l16.669,0l0,19.527c4.171,-2.733 8.199,-4.854 12.083,-6.365c3.884,-1.51 7.929,-2.265 12.137,-2.265c3.416,0 6.437,0.485 9.062,1.456Zm-5.016,19.77c2.445,-0.809 4.36,-1.951 5.744,-3.425c1.385,-1.475 2.077,-3.165 2.077,-5.071c0,-2.553 -1.115,-4.558 -3.344,-6.015c-2.23,-1.456 -5.341,-2.184 -9.332,-2.184c-3.417,0 -7.148,0.701 -11.193,2.104c-4.046,1.402 -8.119,3.362 -12.218,5.879l0,6.096c3.02,1.151 6.284,2.077 9.79,2.778c3.506,0.701 6.914,1.034 10.222,0.998c3.057,0.036 5.808,-0.351 8.254,-1.16Z" style="fill:#24135f;fill-rule:nonzero;"/><path d="M86.816,94.382c0,4.731 -1.774,8.371 -5.322,10.921c-3.549,2.549 -8.661,3.824 -15.337,3.824l-66.157,0l0,-6.545l17.426,0l0,-41.003l-17.426,0l0,-6.544l64.895,0c5.73,0 10.159,1.288 13.287,3.863c3.128,2.576 4.691,5.967 4.691,10.172c0,2.786 -0.736,5.205 -2.207,7.255c-1.472,2.05 -3.444,3.653 -5.914,4.81c8.043,1.892 12.064,6.308 12.064,13.247Zm-61.268,-32.803l0,17.269l37.455,0c3.68,0 6.558,-0.723 8.634,-2.168c2.076,-1.446 3.115,-3.667 3.115,-6.663c0,-2.892 -0.973,-5.021 -2.918,-6.387c-1.945,-1.367 -4.389,-2.051 -7.333,-2.051l-38.953,0Zm53.067,32.172c0,-3.049 -1.169,-5.296 -3.508,-6.742c-2.34,-1.445 -5.586,-2.142 -9.739,-2.089l-39.82,-0.079l0,17.741l39.82,0c8.832,0 13.247,-2.943 13.247,-8.831Z" style="fill:#24135f;fill-rule:nonzero;"/><path d="M200.284,102.582l0,6.545l-37.297,0l0,-6.545l12.774,0l-8.91,-12.695l-39.82,0l-8.911,12.695l12.774,0l0,6.545l-37.376,0l0,-6.545l15.534,0l30.122,-41.081l-13.405,0l0,-6.466l42.186,0l0,6.466l-13.326,0l30.121,41.081l15.534,0Zm-37.533,-18.609l-15.692,-22.472l-0.237,0l-15.691,22.472l31.62,0Z" style="fill:#24135f;fill-rule:nonzero;"/><path d="M273.656,57.794c5.546,1.84 9.961,4.771 13.247,8.792c3.285,4.022 4.928,9.187 4.928,15.495c0,6.308 -1.643,11.473 -4.928,15.494c-3.286,4.022 -7.701,6.952 -13.247,8.792c-5.546,1.84 -11.789,2.76 -18.728,2.76l-52.988,0l0,-6.545l17.426,0l0,-41.003l-17.426,0l0,-6.544l52.988,0c6.939,0 13.182,0.92 18.728,2.759Zm1.656,40.254c5.388,-3.022 8.082,-8.345 8.082,-15.967c0,-13.668 -9.83,-20.502 -29.491,-20.502l-26.415,0l0,41.003l26.415,0c8.884,0 16.021,-1.511 21.409,-4.534Z" style="fill:#24135f;fill-rule:nonzero;"/><path d="M328.064,63.078c-4.81,1.734 -8.608,4.231 -11.394,7.491c-2.786,3.259 -4.18,7.122 -4.18,11.591c0,4.468 1.367,8.319 4.101,11.552c2.733,3.233 6.492,5.69 11.276,7.372c4.783,1.682 10.198,2.524 16.243,2.524c5.835,0 11.434,-0.776 16.796,-2.327c5.362,-1.55 9.961,-3.614 13.799,-6.19l0,-7.806l-30.595,0l0,-6.229l38.401,0l0,17.426c-4.941,3.575 -10.75,6.413 -17.426,8.516c-6.676,2.103 -13.773,3.154 -21.29,3.154c-7.465,0 -14.22,-1.117 -20.265,-3.351c-6.046,-2.234 -10.816,-5.467 -14.312,-9.699c-3.496,-4.232 -5.244,-9.212 -5.244,-14.942c0,-5.678 1.709,-10.658 5.126,-14.943c3.417,-4.284 8.043,-7.569 13.878,-9.856c5.835,-2.287 12.274,-3.43 19.319,-3.43c6.833,0 13.01,1.038 18.53,3.114c5.519,2.077 10.329,5.086 14.43,9.029l0,-11.039l7.254,0l0,18.766l-5.047,0.868c-8.516,-9.462 -19.634,-14.194 -33.354,-14.194c-5.888,0 -11.236,0.868 -16.046,2.603Z" style="fill:#24135f;fill-rule:nonzero;"/><path d="M474.531,75.615l0,-14.036l-52.752,0l0,17.111l26.021,0l0,-8.595l6.624,0l0,23.498l-6.624,0l0,-8.673l-26.021,0l0,17.662l52.752,0l0,-14.035l7.334,0l0,20.58l-85.555,0l0,-6.545l17.426,0l0,-41.003l-17.426,0l0,-6.544l85.555,0l0,20.58l-7.334,0Z" style="fill:#24135f;fill-rule:nonzero;"/><path d="M598.408,88.862l0,2.445c0,3.469 -0.789,6.649 -2.366,9.541c-1.577,2.891 -3.758,5.178 -6.544,6.86c-2.787,1.682 -5.888,2.523 -9.305,2.523c-3.312,0 -6.308,-0.644 -8.989,-1.932c-2.681,-1.288 -5.047,-2.904 -7.097,-4.849c-2.05,-1.945 -4.258,-4.39 -6.623,-7.333c-2.366,-2.839 -4.272,-4.929 -5.717,-6.269c-1.446,-1.341 -3.207,-2.405 -5.283,-3.194c-2.077,-0.788 -4.718,-1.182 -7.925,-1.182l-15.928,0l0,17.032l17.032,0l0,6.623l-42.58,0l0,-6.545l17.426,0l0,-41.003l-17.426,0l0,-6.544l67.024,0c6.676,0 11.854,1.366 15.534,4.1c3.68,2.734 5.52,6.466 5.52,11.197c0,2.944 -0.802,5.546 -2.405,7.806c-1.604,2.261 -3.943,4.035 -7.018,5.323c-3.075,1.288 -6.742,1.932 -11,1.932l-10.487,0c1.629,0.683 3.233,1.669 4.81,2.957c1.577,1.288 3.443,3.088 5.598,5.401c2.103,2.313 3.877,4.113 5.323,5.401c1.445,1.288 2.983,2.3 4.612,3.036c1.63,0.736 3.496,1.104 5.599,1.104c2.05,0 3.916,-0.499 5.598,-1.498c1.683,-0.999 3.023,-2.405 4.022,-4.219c0.999,-1.813 1.498,-3.85 1.498,-6.111l0,-2.602l7.097,0Zm-75.777,-27.283l0,17.663l41.713,0c4.1,0 7.241,-0.815 9.423,-2.444c2.181,-1.63 3.272,-3.785 3.272,-6.466c0,-2.628 -1.091,-4.744 -3.272,-6.348c-2.182,-1.603 -5.323,-2.405 -9.423,-2.405l-41.713,0Z" style="fill:#24135f;fill-rule:nonzero;"/></svg>